<?xml version="1.0" standalone="no"?>
<!DOCTYPE svg PUBLIC "-//W3C//DTD SVG 20010904//EN"
 "http://www.w3.org/TR/2001/REC-SVG-20010904/DTD/svg10.dtd">
<svg version="1.0" xmlns="http://www.w3.org/2000/svg"
 width="1080.000000pt" height="895.000000pt" viewBox="0 0 1080.000000 895.000000"
 preserveAspectRatio="xMidYMid meet">

<g transform="translate(0.000000,895.000000) scale(0.100000,-0.100000)"
fill="#000000" stroke="none">
<path d="M4814 6161 c-14 -6 -40 -51 -79 -138 -31 -70 -61 -132 -65 -138 -4
-5 -11 -24 -14 -42 -4 -17 -13 -37 -21 -43 -7 -6 -16 -26 -19 -44 -4 -19 -13
-39 -21 -46 -8 -7 -15 -19 -15 -27 0 -8 -12 -40 -26 -71 -14 -31 -34 -75 -44
-97 -10 -22 -29 -65 -43 -95 -31 -69 -61 -136 -88 -197 -24 -56 -42 -96 -98
-216 -23 -48 -41 -92 -41 -98 0 -5 -9 -27 -20 -47 -11 -20 -31 -64 -45 -97
-14 -33 -32 -73 -40 -90 -7 -16 -25 -57 -40 -90 -14 -33 -32 -73 -40 -90 -7
-16 -23 -52 -35 -80 -12 -27 -33 -73 -46 -101 -13 -28 -24 -54 -24 -57 0 -6
-65 -150 -102 -224 -11 -23 -17 -46 -13 -52 8 -15 479 -15 506 -1 10 6 19 17
19 25 0 16 62 172 95 240 l20 40 371 3 c316 2 374 4 384 17 10 13 7 30 -19 98
-17 45 -36 90 -41 99 -6 10 -10 23 -10 30 0 6 -9 30 -19 52 -11 23 -25 60 -31
83 -8 31 -17 44 -34 49 -12 3 -110 6 -217 7 l-194 2 -4 25 c-1 14 7 45 19 70
13 25 31 63 40 85 29 67 47 108 72 165 14 30 35 80 48 110 13 30 34 78 47 107
13 28 23 58 23 66 0 8 7 20 15 27 8 7 15 17 15 22 0 12 32 89 113 268 14 30
34 76 46 103 12 26 30 66 41 90 11 24 20 48 20 53 0 8 19 51 62 135 20 40 23
75 8 84 -5 3 -76 10 -157 15 -82 6 -168 12 -193 15 -25 2 -54 0 -66 -4z"/>
<path d="M6514 6122 c-5 -4 -18 -28 -28 -54 -10 -26 -22 -50 -27 -53 -5 -4 -9
-13 -9 -21 0 -14 -22 -68 -70 -169 -41 -87 -60 -132 -60 -141 0 -5 -9 -27 -19
-49 -11 -22 -24 -51 -30 -65 -6 -14 -15 -32 -20 -40 -5 -8 -30 -64 -56 -125
-68 -159 -96 -224 -138 -315 -14 -30 -37 -84 -52 -120 -15 -36 -36 -84 -46
-107 -10 -24 -28 -64 -40 -90 -11 -27 -27 -61 -35 -78 -8 -16 -18 -43 -22 -59
-17 -64 -65 -60 -82 6 -6 24 -17 57 -25 73 -8 17 -17 44 -21 60 -4 17 -13 39
-19 50 -7 11 -18 37 -25 58 -7 22 -18 51 -26 65 -8 15 -14 35 -14 45 0 9 -9
34 -20 54 -11 21 -20 44 -20 51 0 8 -6 28 -14 45 -24 52 -64 160 -72 190 -3
15 -10 30 -15 33 -5 2 -13 24 -19 47 -12 44 -78 221 -111 295 -10 23 -19 50
-19 60 -1 26 -23 57 -42 58 -13 1 -22 -11 -32 -45 -8 -25 -21 -59 -30 -76 -9
-16 -16 -37 -16 -45 0 -9 -7 -25 -15 -36 -8 -12 -21 -39 -28 -60 -35 -95 -100
-250 -108 -258 -5 -6 -9 -17 -9 -26 0 -9 -9 -33 -20 -55 -11 -22 -20 -43 -20
-49 0 -5 -11 -32 -23 -60 -53 -115 -79 -186 -74 -200 5 -13 27 -16 121 -16
128 0 161 -8 171 -42 9 -33 54 -157 70 -193 8 -16 18 -46 23 -65 6 -19 26 -75
46 -123 20 -48 36 -93 36 -99 0 -5 6 -24 14 -41 8 -18 26 -61 39 -97 13 -36
36 -97 51 -135 14 -39 26 -75 26 -80 0 -6 11 -27 25 -48 l26 -37 209 0 209 0
20 26 c11 14 25 42 32 62 6 20 17 48 25 62 7 14 22 48 34 75 12 28 32 73 45
100 13 28 35 79 50 115 42 101 98 227 126 282 11 20 19 42 19 47 0 6 17 48 38
93 21 46 49 108 62 138 25 60 61 141 91 208 10 23 28 63 40 90 11 26 26 61 34
77 8 17 28 64 45 105 33 77 55 128 90 203 11 24 20 50 20 59 0 9 7 21 15 28 8
7 15 18 15 24 0 6 11 34 25 61 13 28 25 54 25 59 0 9 67 157 100 220 11 21 17
42 14 47 -6 11 -444 12 -460 1z"/>
</g>
</svg>
